<?xml version="1.0" encoding="UTF-8"?>
<!--Generator: Apple Native CoreSVG 341-->
<!DOCTYPE svg
PUBLIC "-//W3C//DTD SVG 1.1//EN"
       "http://www.w3.org/Graphics/SVG/1.1/DTD/svg11.dtd">
<svg version="1.1" xmlns="http://www.w3.org/2000/svg" xmlns:xlink="http://www.w3.org/1999/xlink" viewBox="0 0 3300 2200">
 <!--glyph: "", point size: 100.0, font version: "21.1d1e1", template writer version: "138.0.0"-->
 <style>.defaults {-sfsymbols-variable-value-mode:color;-sfsymbols-draw-reverses-motion-groups:true}

.monochrome-0 {-sfsymbols-motion-group:0;-sfsymbols-layer-tags:-f12ee0bbe6ef6ca}

.multicolor-0:tintColor {-sfsymbols-motion-group:0;-sfsymbols-layer-tags:-f12ee0bbe6ef6ca}

.hierarchical-0:primary {-sfsymbols-motion-group:0;-sfsymbols-layer-tags:-f12ee0bbe6ef6ca}

.SFSymbolsPreviewWireframe {fill:none;opacity:1.0;stroke:black;stroke-width:0.5}
</style>
 <g id="Notes">
  <rect height="2200" id="artboard" style="fill:white;opacity:1" width="3300" x="0" y="0"/>
  <line style="fill:none;stroke:black;opacity:1;stroke-width:0.5;" x1="263" x2="3036" y1="292" y2="292"/>
  <text style="stroke:none;fill:black;font-family:sans-serif;font-size:13;font-weight:bold;" transform="matrix(1 0 0 1 263 322)">Weight/Scale Variations</text>
  <text style="stroke:none;fill:black;font-family:sans-serif;font-size:13;text-anchor:middle;" transform="matrix(1 0 0 1 559.711 322)">Ultralight</text>
  <text style="stroke:none;fill:black;font-family:sans-serif;font-size:13;text-anchor:middle;" transform="matrix(1 0 0 1 856.422 322)">Thin</text>
  <text style="stroke:none;fill:black;font-family:sans-serif;font-size:13;text-anchor:middle;" transform="matrix(1 0 0 1 1153.13 322)">Light</text>
  <text style="stroke:none;fill:black;font-family:sans-serif;font-size:13;text-anchor:middle;" transform="matrix(1 0 0 1 1449.84 322)">Regular</text>
  <text style="stroke:none;fill:black;font-family:sans-serif;font-size:13;text-anchor:middle;" transform="matrix(1 0 0 1 1746.56 322)">Medium</text>
  <text style="stroke:none;fill:black;font-family:sans-serif;font-size:13;text-anchor:middle;" transform="matrix(1 0 0 1 2043.27 322)">Semibold</text>
  <text style="stroke:none;fill:black;font-family:sans-serif;font-size:13;text-anchor:middle;" transform="matrix(1 0 0 1 2339.98 322)">Bold</text>
  <text style="stroke:none;fill:black;font-family:sans-serif;font-size:13;text-anchor:middle;" transform="matrix(1 0 0 1 2636.69 322)">Heavy</text>
  <text style="stroke:none;fill:black;font-family:sans-serif;font-size:13;text-anchor:middle;" transform="matrix(1 0 0 1 2933.4 322)">Black</text>
  <line style="fill:none;stroke:black;opacity:1;stroke-width:0.5;" x1="263" x2="3036" y1="1903" y2="1903"/>
  <g transform="matrix(0.2 0 0 0.2 263 1933)">
   <path d="m46.2402 4.15039c21.7773 0 39.4531-17.627 39.4531-39.4043s-17.6758-39.4043-39.4531-39.4043c-21.7285 0-39.4043 17.627-39.4043 39.4043s17.6758 39.4043 39.4043 39.4043Zm0-7.42188c-17.6758 0-31.9336-14.3066-31.9336-31.9824s14.2578-31.9824 31.9336-31.9824 31.9824 14.3066 31.9824 31.9824-14.3066 31.9824-31.9824 31.9824Zm3.61328-17.7734v-28.4668c0-2.24609-1.46484-3.75977-3.71094-3.75977-2.14844 0-3.61328 1.51367-3.61328 3.75977v28.4668c0 2.19727 1.46484 3.71094 3.61328 3.71094 2.24609 0 3.71094-1.51367 3.71094-3.71094Zm-17.8223-10.5957h28.418c2.19727 0 3.71094-1.46484 3.71094-3.61328 0-2.19727-1.51367-3.71094-3.71094-3.71094h-28.418c-2.24609 0-3.75977 1.51367-3.75977 3.71094 0 2.14844 1.51367 3.61328 3.75977 3.61328Z"/>
  </g>
  <g transform="matrix(0.2 0 0 0.2 281.506 1933)">
   <path d="m58.5449 14.5508c27.4902 0 49.8047-22.3145 49.8047-49.8047s-22.3145-49.8047-49.8047-49.8047-49.8047 22.3145-49.8047 49.8047 22.3145 49.8047 49.8047 49.8047Zm0-8.30078c-22.9492 0-41.5039-18.5547-41.5039-41.5039s18.5547-41.5039 41.5039-41.5039 41.5039 18.5547 41.5039 41.5039-18.5547 41.5039-41.5039 41.5039Zm4.05273-23.0957v-36.9141c0-2.49023-1.70898-4.19922-4.15039-4.19922-2.39258 0-4.05273 1.70898-4.05273 4.19922v36.9141c0 2.44141 1.66016 4.15039 4.05273 4.15039 2.44141 0 4.15039-1.66016 4.15039-4.15039Zm-22.5586-14.4043h36.9629c2.44141 0 4.15039-1.61133 4.15039-4.00391 0-2.44141-1.70898-4.15039-4.15039-4.15039h-36.9629c-2.49023 0-4.15039 1.70898-4.15039 4.15039 0 2.39258 1.66016 4.00391 4.15039 4.00391Z"/>
  </g>
  <g transform="matrix(0.2 0 0 0.2 304.924 1933)">
   <path d="m74.8535 28.3203c35.1074 0 63.623-28.4668 63.623-63.5742s-28.5156-63.623-63.623-63.623-63.5742 28.5156-63.5742 63.623 28.4668 63.5742 63.5742 63.5742Zm0-9.08203c-30.127 0-54.4922-24.3652-54.4922-54.4922s24.3652-54.4922 54.4922-54.4922 54.4922 24.3652 54.4922 54.4922-24.3652 54.4922-54.4922 54.4922Zm4.44336-30.3223v-48.4863c0-2.73438-1.85547-4.63867-4.54102-4.63867-2.58789 0-4.44336 1.9043-4.44336 4.63867v48.4863c0 2.68555 1.85547 4.58984 4.44336 4.58984 2.68555 0 4.54102-1.85547 4.54102-4.58984Zm-28.7109-19.7754h48.4863c2.68555 0 4.58984-1.80664 4.58984-4.39453 0-2.73438-1.85547-4.58984-4.58984-4.58984h-48.4863c-2.73438 0-4.58984 1.85547-4.58984 4.58984 0 2.58789 1.85547 4.39453 4.58984 4.39453Z"/>
  </g>
  <text style="stroke:none;fill:black;font-family:sans-serif;font-size:13;font-weight:bold;" transform="matrix(1 0 0 1 263 1953)">Design Variations</text>
  <text style="stroke:none;fill:black;font-family:sans-serif;font-size:13;" transform="matrix(1 0 0 1 263 1971)">Symbols are supported in up to nine weights and three scales.</text>
  <text style="stroke:none;fill:black;font-family:sans-serif;font-size:13;" transform="matrix(1 0 0 1 263 1989)">For optimal layout with text and other symbols, vertically align</text>
  <text style="stroke:none;fill:black;font-family:sans-serif;font-size:13;" transform="matrix(1 0 0 1 263 2007)">symbols with the adjacent text.</text>
  <line style="fill:none;stroke:#00AEEF;stroke-width:0.5;opacity:1.0;" x1="776" x2="776" y1="1919" y2="1933"/>
  <g transform="matrix(0.2 0 0 0.2 776 1933)">
   <path d="m16.5527 0.78125c2.58789 0 3.85742-0.976562 4.78516-3.71094l20.5566-57.5195h0.244141l20.6055 57.5195c0.927734 2.73438 2.19727 3.71094 4.73633 3.71094 2.58789 0 4.24805-1.5625 4.24805-4.00391 0-0.830078-0.146484-1.61133-0.537109-2.63672l-22.9004-60.9863c-1.12305-2.97852-3.125-4.49219-6.25-4.49219-3.02734 0-5.07812 1.46484-6.15234 4.44336l-22.9004 61.084c-0.390625 1.02539-0.537109 1.80664-0.537109 2.63672 0 2.44141 1.5625 3.95508 4.10156 3.95508Zm10.2051-20.9473h30.6641c2.00195 0 3.66211-1.66016 3.66211-3.66211 0-2.05078-1.66016-3.66211-3.66211-3.66211h-30.6641c-2.00195 0-3.66211 1.61133-3.66211 3.66211 0 2.00195 1.66016 3.66211 3.66211 3.66211Z"/>
  </g>
  <line style="fill:none;stroke:#00AEEF;stroke-width:0.5;opacity:1.0;" x1="792.836" x2="792.836" y1="1919" y2="1933"/>
  <text style="stroke:none;fill:black;font-family:sans-serif;font-size:13;font-weight:bold;" transform="matrix(1 0 0 1 776 1953)">Margins</text>
  <text style="stroke:none;fill:black;font-family:sans-serif;font-size:13;" transform="matrix(1 0 0 1 776 1971)">Leading and trailing margins on the left and right side of each symbol</text>
  <text style="stroke:none;fill:black;font-family:sans-serif;font-size:13;" transform="matrix(1 0 0 1 776 1989)">can be adjusted by modifying the x-location of the margin guidelines.</text>
  <text style="stroke:none;fill:black;font-family:sans-serif;font-size:13;" transform="matrix(1 0 0 1 776 2007)">Modifications are automatically applied proportionally to all</text>
  <text style="stroke:none;fill:black;font-family:sans-serif;font-size:13;" transform="matrix(1 0 0 1 776 2025)">scales and weights.</text>
  <g transform="matrix(0.2 0 0 0.2 1289 1933)">
   <path d="m14.209 13.1348 7.86133 7.86133c4.29688 4.39453 9.32617 4.10156 13.8672-1.02539l60.6934-68.2129-4.88281-4.88281-60.2539 67.6758c-1.80664 1.95312-3.4668 2.44141-5.81055 0.0976562l-5.17578-5.12695c-2.29492-2.29492-1.80664-3.95508 0.195312-5.81055l67.4805-62.1582-4.88281-4.83398-68.0664 62.5977c-4.98047 4.58984-5.32227 9.47266-1.02539 13.8184Zm44.873-97.4609c-2.05078 2.00195-2.24609 4.88281-1.07422 6.78711 1.12305 1.80664 3.4668 3.02734 6.5918 2.24609 5.85938-1.66016 12.5977-2.39258 18.8965 0.927734l-2.68555 7.12891c-1.61133 4.00391-0.732422 6.88477 1.70898 9.42383l10.2539 10.3027c2.34375 2.39258 4.54102 2.44141 7.08008 1.95312l4.44336-0.732422 2.58789 2.53906-0.195312 2.24609c-0.0976562 2.29492 0.537109 4.29688 2.7832 6.49414l3.36914 3.32031c2.29492 2.29492 5.51758 2.49023 7.8125 0.195312l12.9883-13.0371c2.29492-2.34375 2.14844-5.37109-0.195312-7.66602l-3.41797-3.41797c-2.19727-2.19727-4.05273-3.02734-6.34766-2.88086l-2.34375 0.244141-2.44141-2.44141 1.02539-4.6875c0.634766-2.73438-0.244141-4.98047-2.88086-7.61719l-11.2793-11.1816c-12.9395-12.8418-35.5957-11.0352-46.6797-0.146484Zm7.08008 2.05078c8.78906-6.39648 25.9766-5.66406 33.6914 1.95312l12.3047 12.207c1.02539 1.02539 1.2207 1.80664 0.927734 3.32031l-1.46484 6.64062 6.73828 6.68945 4.39453-0.244141c1.12305-0.0488281 1.51367 0.0488281 2.34375 0.878906l2.53906 2.49023-10.8398 10.8398-2.49023-2.49023c-0.830078-0.878906-0.976562-1.2207-0.927734-2.39258l0.292969-4.3457-6.68945-6.73828-6.83594 1.17188c-1.41602 0.292969-2.05078 0.195312-3.17383-0.878906l-8.93555-8.88672c-1.07422-1.02539-1.17188-1.70898-0.488281-3.36914l4.58984-11.4746c-6.10352-6.34766-17.041-7.51953-25.5859-4.58984-0.683594 0.244141-0.927734-0.390625-0.390625-0.78125Z"/>
  </g>
  <text style="stroke:none;fill:black;font-family:sans-serif;font-size:13;font-weight:bold;" transform="matrix(1 0 0 1 1289 1953)">Exporting</text>
  <text style="stroke:none;fill:black;font-family:sans-serif;font-size:13;" transform="matrix(1 0 0 1 1289 1971)">Symbols should be outlined when exporting to ensure the</text>
  <text style="stroke:none;fill:black;font-family:sans-serif;font-size:13;" transform="matrix(1 0 0 1 1289 1989)">design is preserved when submitting to Xcode.</text>
  <text id="template-version" style="stroke:none;fill:black;font-family:sans-serif;font-size:13;text-anchor:end;" transform="matrix(1 0 0 1 3036 1933)">Template v.7.0</text>
  <text style="stroke:none;fill:black;font-family:sans-serif;font-size:13;text-anchor:end;" transform="matrix(1 0 0 1 3036 1951)">Requires Xcode 26 or greater</text>
  <text id="descriptive-name" style="stroke:none;fill:black;font-family:sans-serif;font-size:13;text-anchor:end;" transform="matrix(1 0 0 1 3036 1969)">Generated from iso_paper_paths</text>
  <text style="stroke:none;fill:black;font-family:sans-serif;font-size:13;text-anchor:end;" transform="matrix(1 0 0 1 3036 1987)">Typeset at 100.0 points</text>
  <text style="stroke:none;fill:black;font-family:sans-serif;font-size:13;" transform="matrix(1 0 0 1 263 726)">Small</text>
  <text style="stroke:none;fill:black;font-family:sans-serif;font-size:13;" transform="matrix(1 0 0 1 263 1156)">Medium</text>
  <text style="stroke:none;fill:black;font-family:sans-serif;font-size:13;" transform="matrix(1 0 0 1 263 1586)">Large</text>
 </g>
 <g id="Guides">
  <g id="H-reference" style="fill:#27AAE1;stroke:none;" transform="matrix(1 0 0 1 339 696)">
   <path d="M0.993654 0L3.63775 0L29.3281-67.1323L30.0303-67.1323L30.0303-70.459L28.1226-70.459ZM11.6885-24.4799L46.9815-24.4799L46.2315-26.7285L12.4385-26.7285ZM55.1196 0L57.7637 0L30.6382-70.459L29.4326-70.459L29.4326-67.1323Z"/>
  </g>
  <line id="Baseline-S" style="fill:none;stroke:#27AAE1;opacity:1;stroke-width:0.5;" x1="263" x2="3036" y1="696" y2="696"/>
  <line id="Capline-S" style="fill:none;stroke:#27AAE1;opacity:1;stroke-width:0.5;" x1="263" x2="3036" y1="625.541" y2="625.541"/>
  <g id="H-reference" style="fill:#27AAE1;stroke:none;" transform="matrix(1 0 0 1 339 1126)">
   <path d="M0.993654 0L3.63775 0L29.3281-67.1323L30.0303-67.1323L30.0303-70.459L28.1226-70.459ZM11.6885-24.4799L46.9815-24.4799L46.2315-26.7285L12.4385-26.7285ZM55.1196 0L57.7637 0L30.6382-70.459L29.4326-70.459L29.4326-67.1323Z"/>
  </g>
  <line id="Baseline-M" style="fill:none;stroke:#27AAE1;opacity:1;stroke-width:0.5;" x1="263" x2="3036" y1="1126" y2="1126"/>
  <line id="Capline-M" style="fill:none;stroke:#27AAE1;opacity:1;stroke-width:0.5;" x1="263" x2="3036" y1="1055.54" y2="1055.54"/>
  <g id="H-reference" style="fill:#27AAE1;stroke:none;" transform="matrix(1 0 0 1 339 1556)">
   <path d="M0.993654 0L3.63775 0L29.3281-67.1323L30.0303-67.1323L30.0303-70.459L28.1226-70.459ZM11.6885-24.4799L46.9815-24.4799L46.2315-26.7285L12.4385-26.7285ZM55.1196 0L57.7637 0L30.6382-70.459L29.4326-70.459L29.4326-67.1323Z"/>
  </g>
  <line id="Baseline-L" style="fill:none;stroke:#27AAE1;opacity:1;stroke-width:0.5;" x1="263" x2="3036" y1="1556" y2="1556"/>
  <line id="Capline-L" style="fill:none;stroke:#27AAE1;opacity:1;stroke-width:0.5;" x1="263" x2="3036" y1="1485.54" y2="1485.54"/>
  <line id="right-margin-Black-S" style="fill:none;stroke:#00AEEF;stroke-width:0.5;opacity:1.0;" x1="2982.23" x2="2982.23" y1="600.785" y2="720.121"/>
  <line id="left-margin-Black-S" style="fill:none;stroke:#00AEEF;stroke-width:0.5;opacity:1.0;" x1="2884.57" x2="2884.57" y1="600.785" y2="720.121"/>
  <line id="right-margin-Regular-S" style="fill:none;stroke:#00AEEF;stroke-width:0.5;opacity:1.0;" x1="1496.11" x2="1496.11" y1="600.785" y2="720.121"/>
  <line id="left-margin-Regular-S" style="fill:none;stroke:#00AEEF;stroke-width:0.5;opacity:1.0;" x1="1403.58" x2="1403.58" y1="600.785" y2="720.121"/>
  <line id="right-margin-Ultralight-S" style="fill:none;stroke:#00AEEF;stroke-width:0.5;opacity:1.0;" x1="603.773" x2="603.773" y1="600.785" y2="720.121"/>
  <line id="left-margin-Ultralight-S" style="fill:none;stroke:#00AEEF;stroke-width:0.5;opacity:1.0;" x1="515.649" x2="515.649" y1="600.785" y2="720.121"/>
 </g>
 <g id="Symbols">
  <g id="Black-S" transform="matrix(1 0 0 1 2884.57 696)">
   <path class="monochrome-0 multicolor-0:tintColor hierarchical-0:primary SFSymbolsPreviewWireframe" d="M48.8281 6.73828C72.0215 6.73828 90.8203-12.0605 90.8203-35.2539C90.8203-58.4473 72.0215-77.2461 48.8281-77.2461C25.6348-77.2461 6.83594-58.4473 6.83594-35.2539C6.83594-12.0605 25.6348 6.73828 48.8281 6.73828ZM48.8281-7.42188C33.4473-7.42188 20.9961-19.873 20.9961-35.2539C20.9961-50.6348 33.4473-63.0859 48.8281-63.0859C64.209-63.0859 76.6602-50.6348 76.6602-35.2539C76.6602-19.873 64.209-7.42188 48.8281-7.42188ZM49.4127-49.711C50.3744-49.711 51.1485-48.9368 51.1485-47.9752C51.1485-47.0135 50.3744-46.2393 49.4127-46.2393C48.4511-46.2393 47.6769-47.0135 47.6769-47.9752C47.6769-48.9368 48.4511-49.711 49.4127-49.711ZM59.4078-49.73C60.3695-49.73 61.1437-48.9558 61.1437-47.9942C61.1437-47.0325 60.3695-46.2583 59.4078-46.2583C58.4462-46.2583 57.672-47.0325 57.672-47.9942C57.672-48.9558 58.4462-49.73 59.4078-49.73ZM54.3791-41.2167C55.3408-41.2167 56.115-40.4425 56.115-39.4809C56.115-38.5192 55.3408-37.745 54.3791-37.745C53.4175-37.745 52.6433-38.5192 52.6433-39.4809C52.6433-40.4425 53.4175-41.2167 54.3791-41.2167ZM64.469-41.215C65.4306-41.215 66.2048-40.4409 66.2048-39.4792C66.2048-38.5176 65.4306-37.7434 64.469-37.7434C63.5073-37.7434 62.7331-38.5176 62.7331-39.4792C62.7331-40.4409 63.5073-41.215 64.469-41.215ZM44.4047-41.1792C45.3663-41.1792 46.1405-40.405 46.1405-39.4434C46.1405-38.4817 45.3663-37.7075 44.4047-37.7075C43.443-37.7075 42.6688-38.4817 42.6688-39.4434C42.6688-40.405 43.443-41.1792 44.4047-41.1792ZM39.3933-49.75C40.355-49.75 41.1291-48.9758 41.1291-48.0142C41.1291-47.0525 40.355-46.2783 39.3933-46.2783C38.4316-46.2783 37.6575-47.0525 37.6575-48.0142C37.6575-48.9758 38.4316-49.75 39.3933-49.75ZM34.4818-41.1604C35.4435-41.1604 36.2176-40.3862 36.2176-39.4245C36.2176-38.4629 35.4435-37.6887 34.4818-37.6887C33.5201-37.6887 32.746-38.4629 32.746-39.4245C32.746-40.3862 33.5201-41.1604 34.4818-41.1604ZM39.4198-32.7174C40.3814-32.7174 41.1556-31.9432 41.1556-30.9816C41.1556-30.0199 40.3814-29.2457 39.4198-29.2457C38.4581-29.2457 37.684-30.0199 37.684-30.9816C37.684-31.9432 38.4581-32.7174 39.4198-32.7174ZM49.4031-32.6893C50.3647-32.6893 51.1389-31.9151 51.1389-30.9534C51.1389-29.9918 50.3647-29.2176 49.4031-29.2176C48.4414-29.2176 47.6672-29.9918 47.6672-30.9534C47.6672-31.9151 48.4414-32.6893 49.4031-32.6893ZM59.4501-32.7138C60.4117-32.7138 61.1859-31.9396 61.1859-30.978C61.1859-30.0163 60.4117-29.2421 59.4501-29.2421C58.4884-29.2421 57.7142-30.0163 57.7142-30.978C57.7142-31.9396 58.4884-32.7138 59.4501-32.7138ZM64.4424-24.1752C65.404-24.1752 66.1782-23.401 66.1782-22.4393C66.1782-21.4777 65.404-20.7035 64.4424-20.7035C63.4807-20.7035 62.7065-21.4777 62.7065-22.4393C62.7065-23.401 63.4807-24.1752 64.4424-24.1752ZM54.3933-24.1394C55.355-24.1394 56.1291-23.3652 56.1291-22.4035C56.1291-21.4419 55.355-20.6677 54.3933-20.6677C53.4316-20.6677 52.6575-21.4419 52.6575-22.4035C52.6575-23.3652 53.4316-24.1394 54.3933-24.1394ZM44.4103-24.1808C45.3719-24.1808 46.1461-23.4066 46.1461-22.445C46.1461-21.4833 45.3719-20.7091 44.4103-20.7091C43.4486-20.7091 42.6744-21.4833 42.6744-22.445C42.6744-23.4066 43.4486-24.1808 44.4103-24.1808ZM34.4159-24.2581C35.3775-24.2581 36.1517-23.4839 36.1517-22.5222C36.1517-21.5606 35.3775-20.7864 34.4159-20.7864C33.4542-20.7864 32.68-21.5606 32.68-22.5222C32.68-23.4839 33.4542-24.2581 34.4159-24.2581Z"/>
  </g>
  <g id="Regular-S" transform="matrix(1 0 0 1 1403.58 696)">
   <path class="monochrome-0 multicolor-0:tintColor hierarchical-0:primary SFSymbolsPreviewWireframe" d="M46.2402 4.15039C68.0176 4.15039 85.6934-13.4766 85.6934-35.2539C85.6934-57.0312 68.0176-74.6582 46.2402-74.6582C24.5117-74.6582 6.83594-57.0312 6.83594-35.2539C6.83594-13.4766 24.5117 4.15039 46.2402 4.15039ZM46.2402-3.27148C28.5645-3.27148 14.3066-17.5781 14.3066-35.2539C14.3066-52.9297 28.5645-67.2363 46.2402-67.2363C63.916-67.2363 78.2227-52.9297 78.2227-35.2539C78.2227-17.5781 63.916-3.27148 46.2402-3.27148ZM46.4176-49.942C47.3792-49.942 48.1534-49.1678 48.1534-48.2062C48.1534-47.2445 47.3792-46.4703 46.4176-46.4703C45.4559-46.4703 44.6817-47.2445 44.6817-48.2062C44.6817-49.1678 45.4559-49.942 46.4176-49.942ZM56.4127-49.961C57.3743-49.961 58.1485-49.1868 58.1485-48.2252C58.1485-47.2635 57.3743-46.4893 56.4127-46.4893C55.451-46.4893 54.6768-47.2635 54.6768-48.2252C54.6768-49.1868 55.451-49.961 56.4127-49.961ZM51.384-41.4477C52.3456-41.4477 53.1198-40.6735 53.1198-39.7118C53.1198-38.7502 52.3456-37.976 51.384-37.976C50.4223-37.976 49.6481-38.7502 49.6481-39.7118C49.6481-40.6735 50.4223-41.4477 51.384-41.4477ZM61.4738-41.446C62.4355-41.446 63.2097-40.6719 63.2097-39.7102C63.2097-38.7486 62.4355-37.9744 61.4738-37.9744C60.5122-37.9744 59.738-38.7486 59.738-39.7102C59.738-40.6719 60.5122-41.446 61.4738-41.446ZM41.4095-41.4102C42.3712-41.4102 43.1453-40.636 43.1453-39.6744C43.1453-38.7127 42.3712-37.9385 41.4095-37.9385C40.4478-37.9385 39.6737-38.7127 39.6737-39.6744C39.6737-40.636 40.4478-41.4102 41.4095-41.4102ZM36.3981-49.981C37.3598-49.981 38.134-49.2068 38.134-48.2452C38.134-47.2835 37.3598-46.5093 36.3981-46.5093C35.4365-46.5093 34.6623-47.2835 34.6623-48.2452C34.6623-49.2068 35.4365-49.981 36.3981-49.981ZM31.4867-41.3914C32.4483-41.3914 33.2225-40.6172 33.2225-39.6555C33.2225-38.6939 32.4483-37.9197 31.4867-37.9197C30.525-37.9197 29.7508-38.6939 29.7508-39.6555C29.7508-40.6172 30.525-41.3914 31.4867-41.3914ZM36.4246-32.9484C37.3863-32.9484 38.1605-32.1742 38.1605-31.2126C38.1605-30.2509 37.3863-29.4767 36.4246-29.4767C35.463-29.4767 34.6888-30.2509 34.6888-31.2126C34.6888-32.1742 35.463-32.9484 36.4246-32.9484ZM46.4079-32.9203C47.3696-32.9203 48.1438-32.1461 48.1438-31.1844C48.1438-30.2228 47.3696-29.4486 46.4079-29.4486C45.4463-29.4486 44.6721-30.2228 44.6721-31.1844C44.6721-32.1461 45.4463-32.9203 46.4079-32.9203ZM56.4549-32.9448C57.4166-32.9448 58.1908-32.1706 58.1908-31.209C58.1908-30.2473 57.4166-29.4731 56.4549-29.4731C55.4933-29.4731 54.7191-30.2473 54.7191-31.209C54.7191-32.1706 55.4933-32.9448 56.4549-32.9448ZM61.4472-24.4062C62.4089-24.4062 63.1831-23.632 63.1831-22.6703C63.1831-21.7087 62.4089-20.9345 61.4472-20.9345C60.4856-20.9345 59.7114-21.7087 59.7114-22.6703C59.7114-23.632 60.4856-24.4062 61.4472-24.4062ZM51.3981-24.3704C52.3598-24.3704 53.134-23.5962 53.134-22.6345C53.134-21.6729 52.3598-20.8987 51.3981-20.8987C50.4365-20.8987 49.6623-21.6729 49.6623-22.6345C49.6623-23.5962 50.4365-24.3704 51.3981-24.3704ZM41.4151-24.4118C42.3768-24.4118 43.151-23.6376 43.151-22.676C43.151-21.7143 42.3768-20.9401 41.4151-20.9401C40.4535-20.9401 39.6793-21.7143 39.6793-22.676C39.6793-23.6376 40.4535-24.4118 41.4151-24.4118ZM31.4207-24.4891C32.3824-24.4891 33.1566-23.7149 33.1566-22.7532C33.1566-21.7916 32.3824-21.0174 31.4207-21.0174C30.4591-21.0174 29.6849-21.7916 29.6849-22.7532C29.6849-23.7149 30.4591-24.4891 31.4207-24.4891Z"/>
  </g>
  <g id="Ultralight-S" transform="matrix(1 0 0 1 515.649 696)">
   <path class="monochrome-0 multicolor-0:tintColor hierarchical-0:primary SFSymbolsPreviewWireframe" d="M44.0606 1.97072C64.6118 1.97072 81.2886-14.7026 81.2886-35.2539C81.2886-55.8052 64.6118-72.4785 44.0606-72.4785C23.5127-72.4785 6.83594-55.8052 6.83594-35.2539C6.83594-14.7026 23.5127 1.97072 44.0606 1.97072ZM44.0606-0.274438C24.7046-0.274438 9.0391-15.898 9.0391-35.2539C9.0391-54.6099 24.7046-70.2334 44.0606-70.2334C63.4165-70.2334 79.04-54.6099 79.04-35.2539C79.04-15.898 63.4165-0.274438 44.0606-0.274438ZM44.3337-49.711C45.2953-49.711 46.0695-48.9368 46.0695-47.9752C46.0695-47.0135 45.2953-46.2393 44.3337-46.2393C43.372-46.2393 42.5978-47.0135 42.5978-47.9752C42.5978-48.9368 43.372-49.711 44.3337-49.711ZM54.3288-49.73C55.2904-49.73 56.0646-48.9558 56.0646-47.9942C56.0646-47.0325 55.2904-46.2583 54.3288-46.2583C53.3671-46.2583 52.5929-47.0325 52.5929-47.9942C52.5929-48.9558 53.3671-49.73 54.3288-49.73ZM49.3001-41.2167C50.2617-41.2167 51.0359-40.4425 51.0359-39.4809C51.0359-38.5192 50.2617-37.745 49.3001-37.745C48.3384-37.745 47.5643-38.5192 47.5643-39.4809C47.5643-40.4425 48.3384-41.2167 49.3001-41.2167ZM59.3899-41.215C60.3516-41.215 61.1258-40.4409 61.1258-39.4792C61.1258-38.5176 60.3516-37.7434 59.3899-37.7434C58.4283-37.7434 57.6541-38.5176 57.6541-39.4792C57.6541-40.4409 58.4283-41.215 59.3899-41.215ZM39.3256-41.1792C40.2873-41.1792 41.0614-40.405 41.0614-39.4434C41.0614-38.4817 40.2873-37.7075 39.3256-37.7075C38.3639-37.7075 37.5898-38.4817 37.5898-39.4434C37.5898-40.405 38.3639-41.1792 39.3256-41.1792ZM34.3143-49.75C35.2759-49.75 36.0501-48.9758 36.0501-48.0142C36.0501-47.0525 35.2759-46.2783 34.3143-46.2783C33.3526-46.2783 32.5784-47.0525 32.5784-48.0142C32.5784-48.9758 33.3526-49.75 34.3143-49.75ZM29.4027-41.1604C30.3644-41.1604 31.1386-40.3862 31.1386-39.4245C31.1386-38.4629 30.3644-37.6887 29.4027-37.6887C28.4411-37.6887 27.6669-38.4629 27.6669-39.4245C27.6669-40.3862 28.4411-41.1604 29.4027-41.1604ZM34.3407-32.7174C35.3024-32.7174 36.0766-31.9432 36.0766-30.9816C36.0766-30.0199 35.3024-29.2457 34.3407-29.2457C33.3791-29.2457 32.6049-30.0199 32.6049-30.9816C32.6049-31.9432 33.3791-32.7174 34.3407-32.7174ZM44.324-32.6893C45.2857-32.6893 46.0599-31.9151 46.0599-30.9534C46.0599-29.9918 45.2857-29.2176 44.324-29.2176C43.3624-29.2176 42.5882-29.9918 42.5882-30.9534C42.5882-31.9151 43.3624-32.6893 44.324-32.6893ZM54.371-32.7138C55.3327-32.7138 56.1069-31.9396 56.1069-30.978C56.1069-30.0163 55.3327-29.2421 54.371-29.2421C53.4094-29.2421 52.6352-30.0163 52.6352-30.978C52.6352-31.9396 53.4094-32.7138 54.371-32.7138ZM59.3633-24.1752C60.325-24.1752 61.0992-23.401 61.0992-22.4393C61.0992-21.4777 60.325-20.7035 59.3633-20.7035C58.4017-20.7035 57.6275-21.4777 57.6275-22.4393C57.6275-23.401 58.4017-24.1752 59.3633-24.1752ZM49.3143-24.1394C50.2759-24.1394 51.0501-23.3652 51.0501-22.4035C51.0501-21.4419 50.2759-20.6677 49.3143-20.6677C48.3526-20.6677 47.5784-21.4419 47.5784-22.4035C47.5784-23.3652 48.3526-24.1394 49.3143-24.1394ZM39.3312-24.1808C40.2929-24.1808 41.0671-23.4066 41.0671-22.445C41.0671-21.4833 40.2929-20.7091 39.3312-20.7091C38.3696-20.7091 37.5954-21.4833 37.5954-22.445C37.5954-23.4066 38.3696-24.1808 39.3312-24.1808ZM29.3368-24.2581C30.2985-24.2581 31.0727-23.4839 31.0727-22.5222C31.0727-21.5606 30.2985-20.7864 29.3368-20.7864C28.3752-20.7864 27.601-21.5606 27.601-22.5222C27.601-23.4839 28.3752-24.2581 29.3368-24.2581Z"/>
  </g>
 </g>
</svg>
